<svg xmlns="http://www.w3.org/2000/svg" style="width:0;height:0;visibility:hidden;">
  <symbol id="rd-icon-spotter" viewBox="0 0 21 23">
    <path fill-rule="evenodd" clip-rule="evenodd" d="M12.6063 1.69356C12.2641 1.34905 11.709 1.34905 11.3668 1.69356L6.10045 6.99512C5.75969 7.33962 5.75969 7.89727 6.10185 8.24178L6.72189 8.86606L12.6063 2.94148C12.9484 2.59698 12.9484 2.03806 12.6063 1.69356ZM13.6206 3.94909L7.72946 9.88051L7.73016 9.88185L9.36386 11.5267C10.2558 12.4323 10.2537 13.894 9.35706 14.7961C8.4604 15.6982 7.00931 15.7009 6.10991 14.8029L5.08616 13.7721C4.19966 12.8687 4.20036 11.4144 5.08889 10.5123L5.71573 9.88121L5.08889 9.25008C4.20169 8.34934 4.19966 6.89779 5.08209 5.99436L10.3721 0.668166C11.2715 -0.225028 12.7185 -0.221639 13.6138 0.679741C14.5091 1.58119 14.5125 3.04361 13.6206 3.94909ZM6.72294 10.8946L8.3495 12.5323C8.69166 12.8768 8.69166 13.4358 8.3495 13.7803C8.00741 14.1248 7.45221 14.1248 7.11004 13.7803L6.09912 12.7625C5.76102 12.4173 5.76235 11.8617 6.10318 11.5186L6.72294 10.8946ZM8.27322 21.3083C8.6154 21.6528 9.17053 21.6528 9.51269 21.3083L14.779 16.0067C15.1198 15.6622 15.1198 15.1045 14.7776 14.76L14.1576 14.1358L8.27322 20.0603C7.93106 20.4048 7.93106 20.9638 8.27322 21.3083ZM7.25891 19.0527L13.15 13.1213L13.1493 13.12L11.5156 11.4751C10.6237 10.5695 10.6258 9.10783 11.5224 8.20573C12.4191 7.30363 13.8702 7.3009 14.7696 8.19892L15.7933 9.2297C16.6798 10.1332 16.6791 11.5874 15.7906 12.4895L15.1637 13.1206L15.7906 13.7517C16.6778 14.6525 16.6798 16.104 15.7974 17.0075L10.5074 22.3336C9.60803 23.2268 8.16097 23.2235 7.26567 22.3221C6.37038 21.4206 6.367 19.9582 7.25891 19.0527ZM14.1565 12.1072L12.53 10.4695C12.1878 10.125 12.1878 9.56603 12.53 9.22152C12.8721 8.87702 13.4273 8.87702 13.7694 9.22152L14.7804 10.2394C15.1185 10.5845 15.1171 11.1401 14.7763 11.4832L14.1565 12.1072Z" fill="#FF0004"/>
  </symbol>
</svg>
